<?xml version="1.0" encoding="utf-8"?>
<!-- Generator: Adobe Illustrator 27.5.0, SVG Export Plug-In . SVG Version: 6.00 Build 0)  -->
<svg version="1.1" id="Ñëîé_1" xmlns="http://www.w3.org/2000/svg" xmlns:xlink="http://www.w3.org/1999/xlink" x="0px" y="0px"
	 viewBox="0 0 2600 2000" style="enable-background:new 0 0 2600 2000;" xml:space="preserve">
<rect id="_x36_" style="fill:#FFFFFF;" width="2600" height="2000"/>
<g>
	<g id="_x35_">
		<path style="fill:#B3D2FF;" d="M332.015,1581.89c-4.601-14.114-9.153-28.739-13.529-43.468l10.786-3.212
			c4.348,14.634,8.87,29.163,13.44,43.183L332.015,1581.89z M2261.541,1563.662l-11.168-1.381
			c1.854-15.024,3.615-30.156,5.234-44.973l11.186,1.225C2265.169,1533.403,2263.402,1548.587,2261.541,1563.662z M306.063,1494.638
			c-3.939-14.556-7.758-29.383-11.353-44.069l10.929-2.682c3.574,14.598,7.37,29.335,11.285,43.804L306.063,1494.638z
			 M2271.4,1473.331l-11.202-1.06c1.424-15.085,2.742-30.259,3.918-45.1l11.216,0.89
			C2274.153,1442.959,2272.83,1458.189,2271.4,1473.331z M284.428,1406.241c-3.25-14.83-6.342-29.825-9.191-44.57l11.048-2.139
			c2.831,14.653,5.905,29.556,9.134,44.294L284.428,1406.241z M2278.563,1382.729l-11.23-0.712
			c0.953-15.074,1.788-30.28,2.482-45.193l11.24,0.525C2280.358,1352.324,2279.52,1367.592,2278.563,1382.729z M267.173,1316.88
			c-2.502-15.012-4.819-30.149-6.885-44.993l11.144-1.555c2.053,14.744,4.354,29.78,6.84,44.693L267.173,1316.88z
			 M2282.773,1291.927l-11.248-0.327c0.439-15.141,0.742-30.363,0.9-45.243l11.252,0.119
			C2283.518,1261.425,2283.214,1276.717,2282.773,1291.927z M254.641,1226.714c-1.678-15.162-3.138-30.412-4.34-45.325l11.216-0.907
			c1.194,14.802,2.643,29.939,4.308,44.992L254.641,1226.714z M2272.471,1201.11c-0.133-15.153-0.42-30.37-0.855-45.229
			l11.248-0.329c0.436,14.936,0.726,30.23,0.859,45.46L2272.471,1201.11z M247.35,1135.944c-0.746-15.252-1.241-30.564-1.471-45.513
			l11.251-0.174c0.228,14.824,0.719,30.01,1.459,45.136L247.35,1135.944z M2269.807,1110.691
			c-0.772-15.133-1.723-30.317-2.823-45.13l11.22-0.836c1.108,14.899,2.062,30.171,2.84,45.39L2269.807,1110.691z M257.237,1045.104
			l-11.25-0.232c0.313-15.292,0.917-30.61,1.796-45.525l11.234,0.663C258.146,1014.783,257.547,1029.954,257.237,1045.104z
			 M2263.081,1020.522c-1.503-15.13-3.206-30.241-5.059-44.915l11.163-1.413c1.866,14.772,3.579,29.985,5.093,45.213
			L2263.081,1020.522z M262.584,955.036l-11.196-1.126c1.529-15.235,3.392-30.462,5.539-45.258l11.136,1.62
			C265.939,924.905,264.096,939.966,262.584,955.036z M2251.723,930.864c-2.341-15.034-4.911-30.012-7.639-44.517l11.057-2.085
			c2.751,14.62,5.341,29.716,7.7,44.866L2251.723,930.864z M920.915,929.274c-15.636-2.468-26.945-9.594-42.612-21.9l7.112-8.73
			c13.724,10.752,23.637,17.202,36.698,19.428L920.915,929.274z M959.955,902.47l-10.021-5.124
			c5.151-10.099,9.704-24.113,13.535-41.653l10.993,2.405C970.369,876.844,965.624,891.357,959.955,902.47z M845.279,875.063
			c-8.964-9.994-18.544-21.496-29.286-35.164l8.843-6.967c10.591,13.474,20.016,24.793,28.816,34.604L845.279,875.063z
			 M275.579,865.823l-11.047-2.146c2.915-15.037,6.213-30.03,9.804-44.565l10.924,2.705
			C281.714,836.167,278.457,850.973,275.579,865.823z M2234.989,842.123c-3.332-14.88-6.927-29.631-10.684-43.844l10.879-2.883
			c3.793,14.351,7.421,29.243,10.784,44.262L2234.989,842.123z M982.033,812.759l-11.16-1.438
			c1.728-13.447,3.277-28.173,4.735-45.019l11.211,0.973C985.346,784.278,983.781,799.156,982.033,812.759z M788.433,803.603
			c-9.147-12.367-18.634-25.44-26.808-36.722l9.109-6.615c8.159,11.261,17.627,24.307,26.743,36.633L788.433,803.603z
			 M1612.253,802.676c-8.763,0-17.361-2.621-25.555-7.79l6-9.532c12.309,7.779,24.417,7.797,37.491,1.592l4.841,10.17
			C1627.3,800.805,1619.637,802.676,1612.253,802.676z M297.228,778.402l-10.761-3.294c4.471-14.638,9.376-29.196,14.579-43.271
			l10.553,3.91C306.471,749.62,301.636,763.971,297.228,778.402z M1671.826,767.662l-8.267-7.642
			c8.532-9.251,17.677-20.663,27.961-34.888l9.116,6.606C1690.087,746.328,1680.665,758.079,1671.826,767.662z M1554.703,759.916
			c-7.282-11.247-14.498-24.493-22.062-40.492l10.171-4.819c7.348,15.543,14.325,28.36,21.334,39.184L1554.703,759.916z
			 M2211.873,754.927c-4.532-14.597-9.37-28.966-14.376-42.709l10.572-3.861c5.068,13.912,9.964,28.455,14.55,43.225
			L2211.873,754.927z M734.957,730.151c-10.295-14.086-18.874-25.651-27.001-36.394l8.971-6.801
			c8.164,10.793,16.778,22.405,27.111,36.543L734.957,730.151z M990.203,721.778l-11.229-0.727
			c0.853-13.199,1.721-28.034,2.653-45.354l11.236,0.606C991.929,693.663,991.058,708.538,990.203,721.778z M328.466,694.045
			l-10.295-4.549c6.177-14.007,12.76-27.761,19.755-41.211l9.978,5.208C341.021,666.727,334.545,680.261,328.466,694.045z
			 M1726.414,694.042l-9.403-6.19c7.996-12.171,16.256-25.067,24.617-38.095l9.466,6.09
			C1742.714,668.909,1734.445,681.816,1726.414,694.042z M1514.528,677.381c-5.097-12.799-10.364-26.764-16.101-42.692l10.584-3.822
			c5.696,15.809,10.919,29.659,15.97,42.342L1514.528,677.381z M2180.944,670.355c-6.049-14.109-12.449-27.813-19.021-40.734
			l10.029-5.111c6.682,13.138,13.186,27.068,19.332,41.401L2180.944,670.355z M680.174,658.06
			c-10.21-12.689-19.714-23.983-29.055-34.526l8.418-7.476c9.46,10.678,19.077,22.105,29.4,34.934L680.174,658.06z M995.204,630.858
			l-11.239-0.567c0.758-15.051,1.511-30.11,2.315-45.433l11.237,0.59C996.714,600.764,995.961,615.815,995.204,630.858z
			 M1775.765,617.798l-9.388-6.212c9.401-14.242,17.81-26.563,25.708-37.664l9.165,6.535
			C1793.429,591.451,1785.093,603.665,1775.765,617.798z M370.22,614.618l-9.484-6.063c8.842-13.865,17.96-26.387,27.098-37.218
			l8.596,7.27C387.613,589.057,378.794,601.174,370.22,614.618z M1483.402,591.699c-5.161-15.14-10.224-30.289-14.495-43.111
			l10.674-3.565c4.266,12.804,9.321,27.929,14.471,43.036L1483.402,591.699z M620.18,590.91
			c-11.501-11.211-22.809-21.114-33.611-29.436l6.862-8.928c11.146,8.586,22.786,18.778,34.599,30.292L620.18,590.91z
			 M2140.076,590.429c-8.063-13.173-16.517-25.632-25.127-37.03l8.974-6.796c8.831,11.69,17.494,24.455,25.747,37.939
			L2140.076,590.429z M427.991,547.957L421.166,539c13.438-10.263,27.423-17.664,41.568-21.998l3.293,10.773
			C453.162,531.716,440.365,538.506,427.991,547.957z M1828.39,544.511l-8.742-7.093c10.552-13.036,20.552-24.254,30.57-34.293
			l7.96,7.962C1848.439,520.847,1838.695,531.781,1828.39,544.511z M1000.039,540.081l-11.232-0.67
			c0.974-16.375,1.942-31.246,2.957-45.463l11.224,0.804C1001.975,508.923,1001.011,523.751,1000.039,540.081z M549.367,537.722
			c-14.041-6.996-27.852-11.461-41.049-13.271l1.527-11.162c14.412,1.978,29.396,6.804,44.535,14.347L549.367,537.722z
			 M2086.002,519.511c-10.833-11.112-22.05-20.92-33.337-29.152l6.625-9.106c11.796,8.602,23.493,18.827,34.765,30.389
			L2086.002,519.511z M1454.554,505.479c-5.598-16.762-10.211-30.429-14.518-43.012l10.644-3.652
			c4.317,12.61,8.939,26.303,14.545,43.092L1454.554,505.479z M1891.855,482.329l-6.45-9.231
			c13.839-9.693,27.816-16.872,41.546-21.336l3.475,10.715C1917.758,466.596,1904.781,473.276,1891.855,482.329z M2014.633,468.527
			c-13.936-5.885-28.043-9.528-41.929-10.826l1.046-11.217c15.032,1.406,30.258,5.33,45.255,11.663L2014.633,468.527z
			 M1006.588,449.522l-11.209-0.997c1.402-15.807,2.928-31.072,4.534-45.373l11.183,1.259
			C1009.499,418.626,1007.982,433.803,1006.588,449.522z M1425.065,419.618c-5.438-15.195-10.561-29.085-15.665-42.462l10.512-4.02
			c5.132,13.451,10.282,27.413,15.746,42.682L1425.065,419.618z M1016.825,359.49l-11.137-1.611
			c2.276-15.773,4.778-30.942,7.436-45.085l11.058,2.083C1021.553,328.864,1019.077,343.874,1016.825,359.49z M1392.683,335.092
			c-6.046-14.561-12.14-28.493-18.115-41.407l10.211-4.734c6.037,13.049,12.192,27.119,18.296,41.817L1392.683,335.092z
			 M1033.737,270.791l-10.917-2.73c3.925-15.732,8.252-30.55,12.86-44.043l10.647,3.645
			C1041.821,240.856,1037.585,255.367,1033.737,270.791z M1354.584,253.253c-7.401-13.955-14.961-27.055-22.47-38.938l9.509-6.024
			c7.661,12.122,15.365,25.472,22.901,39.678L1354.584,253.253z M1063.226,186.387l-10.09-4.986
			c7.389-14.989,15.582-28.241,24.353-39.391l8.839,6.971C1078.041,159.516,1070.269,172.101,1063.226,186.387z M1306.324,177.777
			c-9.832-12.34-19.98-23.272-30.163-32.491l7.548-8.356c10.632,9.626,21.2,21.006,31.411,33.821L1306.324,177.777z
			 M1117.722,119.782l-6.066-9.489c13.33-8.542,28.016-14.096,43.651-16.507l1.713,11.134
			C1142.945,107.092,1129.723,112.092,1117.722,119.782z M1240.658,119.775c-13.108-7.075-26.762-11.912-40.583-14.376l1.973-11.092
			c15.001,2.675,29.788,7.907,43.95,15.551L1240.658,119.775z"/>
		<path style="fill:#BAD2F4;" d="M546.444,1645.494c0,0-242.664-692.747-45.444-856.494
			c131.823-109.449,240.157,89.21,406.929-38.43c148.474-113.635,101.274-459.361,338.069-507.147
			c266.235-53.727,324.855,591.098,543.342,502.961c265.119-106.948,528.843,110.158,300.937,900.514L546.444,1645.494z"/>
		<path style="fill:#C6DCF7;" d="M2332.852,1402.883c-93.377-14.476-78.14,116.305-211.243,116.305
			c-121.695,0-160.628-498.037-249.172-355.67c-453.928,729.86-190.34-310.386-551.342-323.605
			c-163.235-5.977-272.006,176.062-312.117,498.37c-58.143,291.378-192.985-222.239-331.753-174.484
			c-88.194,30.35-78.093,355.388-199.789,355.388c-133.103,0-117.865-130.781-211.242-116.305
			c-100.536,15.586-130.565,247.064-130.565,247.064h2327.787C2463.417,1649.948,2433.388,1418.469,2332.852,1402.883z"/>
		<path style="fill:#D2E5F7;" d="M2250.161,1544.448c-85.905-6.181-71.887,49.664-194.338,49.664
			c-111.957,0-108.88-125.156-183.801-151.755c-137.97-48.984-251.714,198.929-305.205,74.507
			c-101.593-330.146-397.894-495.712-534.589,0c-53.49,124.422-178.577-97.591-305.204-74.507
			c-77.944,14.209-71.844,151.755-183.801,151.755c-122.451,0-108.433-55.845-194.338-49.664
			c-92.491,6.655-120.116,105.5-120.116,105.5h2141.508C2370.278,1649.948,2342.652,1551.103,2250.161,1544.448z"/>
		<path style="fill:#BAD2F4;" d="M135.63,1649.948c0,0-14.6,59.467,53.057,74.355c92.542,20.365,635.752,73.87,503.787,114.529
			c-74.494,22.952,38.029,54.118,400.87,65.594c362.842,11.476,985.45-33.49,776.076-100.022
			c-209.374-66.532,645.958-16.066,593.996-154.456H135.63z"/>
	</g>
	<g id="_x34_">
		<circle style="fill:#EB5648;" cx="1300" cy="1000" r="593"/>
		<circle style="fill:#FFFFFF;" cx="1300" cy="1000" r="548"/>
		<circle style="fill:#EB5648;" cx="1300" cy="1000" r="509"/>
		<path style="fill:#FFFFFF;" d="M1558.779,965.851c-21.897-11.753-49.177-3.531-60.932,18.366l-42.255,78.717
			c-6.93-12.712-15.189-24.594-24.596-35.456V739.5c0-20.711-16.789-37.5-37.5-37.5s-37.5,16.789-37.5,37.5v233.79
			c-5.813-2.413-11.76-4.565-17.833-6.433V677.5c0-20.711-16.789-37.5-37.5-37.5c-20.711,0-37.5,16.789-37.5,37.5v281.119
			c-6.024,0.469-11.97,1.215-17.833,2.204V723.5c0-20.711-16.79-37.5-37.5-37.5c-20.711,0-37.5,16.789-37.5,37.5v266.383
			c-6.188,3.984-12.136,8.305-17.833,12.925V818c0-20.71-16.79-37.5-37.5-37.5s-37.5,16.79-37.5,37.5v329
			c0,2.226,0.205,4.402,0.577,6.521c-0.049,1.821-0.077,3.646-0.077,5.479c0,111.009,89.991,201,201,201
			c83.339,0,154.829-50.721,185.292-122.976l112.856-210.24C1588.899,1004.886,1580.676,977.606,1558.779,965.851z"/>
	</g>
	<g id="_x33_">
		<g>
			<path style="fill:#8FB3F2;" d="M1692.76,305.882v91.57c-1.31,7.51-7.87,13.22-15.76,13.22s-14.45-5.71-15.76-13.22v-91.57
				c0-8.71,7.05-15.76,15.76-15.76S1692.76,297.172,1692.76,305.882z"/>
			<circle style="fill:#8FB3F2;" cx="1677" cy="439.672" r="16"/>
		</g>
		<path style="fill:#8FB3F2;" d="M553.734,860.839C568.12,845.982,577,825.764,577,803.5c0-45.491-37.009-82.5-82.5-82.5
			c-22.264,0-42.482,8.88-57.338,23.265c-0.345,0.279-0.68,0.575-1.001,0.896c-0.32,0.32-0.617,0.655-0.895,1
			C420.88,761.018,412,781.236,412,803.5c0,45.491,37.009,82.5,82.5,82.5c22.264,0,42.482-8.88,57.338-23.265
			c0.345-0.279,0.68-0.575,1.001-0.896C553.159,861.518,553.456,861.184,553.734,860.839z M552,803.5
			c0,11.337-3.311,21.908-8.998,30.824l-79.326-79.326c8.916-5.687,19.488-8.998,30.824-8.998C526.206,746,552,771.794,552,803.5z
			 M437,803.5c0-11.337,3.311-21.908,8.998-30.824l79.326,79.326C516.408,857.689,505.837,861,494.5,861
			C462.794,861,437,835.206,437,803.5z"/>
		<path style="fill:#F49F9F;" d="M2091.735,803.837C2106.12,788.981,2115,768.763,2115,746.5c0-45.491-37.01-82.5-82.5-82.5
			c-22.263,0-42.48,8.88-57.337,23.264c-0.346,0.279-0.681,0.576-1.002,0.897c-0.321,0.321-0.618,0.656-0.896,1.002
			C1958.88,704.019,1950,724.237,1950,746.5c0,45.491,37.01,82.5,82.5,82.5c22.263,0,42.48-8.88,57.337-23.264
			c0.345-0.279,0.681-0.576,1.002-0.897C2091.16,804.518,2091.457,804.183,2091.735,803.837z M2090,746.5
			c0,11.337-3.311,21.908-8.998,30.824l-79.327-79.326c8.916-5.687,19.488-8.998,30.824-8.998C2064.206,689,2090,714.794,2090,746.5
			z M1975,746.5c0-11.337,3.311-21.908,8.998-30.824l79.327,79.326c-8.916,5.687-19.488,8.998-30.824,8.998
			C2000.794,804,1975,778.206,1975,746.5z"/>
		<path style="fill:#FFD2D2;" d="M813.696,421.004l43.081-43.081c6.156-6.156,6.156-16.136,0-22.292
			c-6.155-6.157-16.136-6.156-22.292,0l-43.081,43.081l-43.081-43.081c-6.155-6.156-16.137-6.156-22.292,0
			c-6.156,6.156-6.156,16.136,0,22.292l43.081,43.081l-43.081,43.081c-6.156,6.156-6.156,16.136,0,22.292
			c3.078,3.079,7.111,4.617,11.146,4.617c4.034,0,8.068-1.539,11.146-4.617l43.081-43.081l43.081,43.081
			c3.078,3.078,7.112,4.617,11.146,4.617s8.068-1.539,11.146-4.617c6.156-6.156,6.156-16.136,0-22.292L813.696,421.004z"/>
	</g>
	<g id="_x32__1_">
		<path style="fill:#9358E0;" d="M1876.547,1120.885c-40.94,35.407-102.017,46.617-147.347,12.128v-0.049
			c-13.488-9.87-27.115-25.747-36.587-42.351l11.126-18.042c88.368,54.506,123.348-38.514,195.211-45.759l-14.383,20.999
			C1884.567,1047.812,1877.8,1119.431,1876.547,1120.885z"/>
		<path style="fill:#F99370;" d="M1957.924,1741.948l1.349-0.704c0,0.944,1.167,4.222,2.111,4.222l39.873,0.821
			c0.944,0,1.525-1.777,1.525-2.721l3.401-0.974c0-5.971-0.491-8.136-3.129-12.756c-9.694-12.884,1.879-70.507,1.544-85.561
			c2.391-4.116-41.989-0.887-42.608-1.859c-0.997,0.001-1.782,0.851-1.704,1.845l5.223,65.842
			C1967.851,1722.607,1958.258,1730.164,1957.924,1741.948z"/>
		<path style="fill:#F99370;" d="M1785.08,1747.686h79.423c6.933-0.279,6.88-7.35,5.602-12.833
			c-4.373-19.765,3.357-65.15,4.79-85.477c0.382-3.722-2.539-6.957-6.281-6.957h-35.052c-3.799,0-6.738,3.331-6.265,7.1
			l6.375,50.829c3.463,22.083-22.876,26.292-37.895,28.734C1785.89,1729.798,1769.355,1743.293,1785.08,1747.686z"/>
		<path style="fill:#103663;" d="M1873.129,1739.447c-0.214,3.894-2.145,8.337-6.656,8.24c0,0-82.384,0-82.384,0
			c-19.431-7.207,8.489-32.988,46.525-32.835c15.461,4.243,38.191,1.214,38.191,1.214S1873.521,1723.063,1873.129,1739.447z"/>
		<path style="fill:#103663;" d="M1999.865,1747.687h-35.211c-17.16-2.343-4.922-32.66,17.601-32.886
			C2004.893,1714.574,2017.011,1745.375,1999.865,1747.687z"/>
		<path style="fill:#E8C0A6;" d="M1803.73,1736.538c1.208,0.021,2.105-1.289,1.622-2.408c-3.757-9.268-10.775-12.123-11.071-12.241
			c-2.095-0.86-3.411,2.446-1.29,3.255c0.274,0.113,5.959,2.513,9.116,10.3C1802.382,1736.124,1803.038,1736.538,1803.73,1736.538z"
			/>
		<path style="fill:#E8C0A6;" d="M1817.332,1734.896c1.153,0.016,2.036-1.166,1.673-2.268
			c-3.074-11.657-18.182-20.396-14.105-12.236c0.139,0.073,7.987,4.309,10.761,13.27
			C1815.893,1734.414,1816.585,1734.896,1817.332,1734.896z"/>
		<path style="fill:#E8C0A6;" d="M1832.813,1732.993c1.176,0.018,2.064-1.215,1.653-2.327c-3.62-11.593-17.349-21.967-14.201-13.412
			c0.076,0.05,7.626,5.167,10.895,14.563C1831.411,1732.54,1832.088,1732.993,1832.813,1732.993z"/>
		<path style="fill:#E8C0A6;" d="M1994.884,1725.269c1.708,0.065,2.431-2.431,0.886-3.262c-11.809-6.911-26.551-0.365-27.172-0.083
			c-2.072,0.906-0.615,4.159,1.444,3.189C1970.183,1724.674,1985.043,1719.344,1994.884,1725.269z"/>
		<path style="fill:#0F2E54;" d="M1778.325,1739.447h94.804c-0.349,2.894-1.148,5.705-2.6,8.24h-86.44
			C1779.832,1747.693,1776.813,1743.426,1778.325,1739.447z"/>
		<path style="fill:#0F2E54;" d="M1999.865,1747.687h-35.211c-4.48,0.005-8.085-3.77-7.808-8.24h50.828
			C2007.946,1743.917,2004.344,1747.693,1999.865,1747.687z"/>
		<path style="fill:#8C4225;" d="M1887.913,936.185c0,0-0.416-25.742,22.852-30.313l12.198,12.655L1887.913,936.185z"/>
		<path style="fill:#1D3F70;" d="M2010.153,1702.754c0,0-37.554,9.122-56.901-0.68c-10.071-63.149-38.024-238.983-47.76-359.475
			c-0.373,7.026-20.828,290.38-24.721,359.475c-13.357,4.469-40.217,9.861-55.247-0.965c-6.751-72.737-28.432-312.214,4.226-507.799
			c0,0,89.496,9.955,159.386-11.164C2008.374,1244.187,2013.469,1628.305,2010.153,1702.754z"/>
		<path style="fill:#163356;" d="M1839.971,1695.072c-9.177-209.043,11.879-388.833,8.721-390.977
			C1843.17,1304.538,1822.002,1485.934,1839.971,1695.072z"/>
		<path style="fill:#163356;" d="M1980.603,1695.072c-3.645-214.809-35.565-418.272-40.386-419.046
			C1936.607,1278.73,1967.982,1479.85,1980.603,1695.072z"/>
		<path style="fill:#F99370;" d="M1898.297,1026.101c-1.954-17.031,0.713-41.603,3.087-51.711
			c4.282-19.939,35.901-12.223,30.646,7.377c-1.019-0.641-4.282,35.49-2.03,45.519
			C1959.672,1036.188,1870.431,1065.459,1898.297,1026.101z"/>
		<path style="fill:#E57D61;" d="M1932.333,980.123c-0.078,0.549-0.175,1.107-0.303,1.644c-0.735-0.487-2.792,19.448-2.811,33.917
			c-13.596,6.182-28.754,3.463-31.528,2.894c-0.297-18.327,1.387-35.025,4.078-45.51
			C1907.28,955.325,1935.146,961.791,1932.333,980.123z"/>
		<path style="fill:#F99370;" d="M1953.416,972.684c-4.502,13.623-11.758,28.629-24.291,36.104l-0.018-0.003
			c-5.09,3.004-10.86,4.47-16.822,4.684c-33.479,4.517-66.458-41.062-36.33-63.743c4.965-3.538,9.313-8.672,11.954-13.541
			C1914.754,884.429,1969.799,925.049,1953.416,972.684z"/>
		<path style="fill:#7640CC;" d="M1840.211,1098.131l-13.783,50.57c-29.521,9.072-60.994,7.016-88.759-10.024
			c30.521,17.24,72.471,7.518,79.087-2.606C1823.722,1125.346,1839.259,1099.685,1840.211,1098.131z"/>
		<path style="fill:#9358E0;" d="M2002.158,1266.591c-3.197,3.886-6.605,7.781-10.215,11.694c0,0-17.583,3.307-31.353-15.011
			c56.155-119.042-52.26-130.15-30.591-235.991C2002.434,1035.837,2103.2,1143.943,2002.158,1266.591z"/>
		<path style="fill:#C16256;" d="M1901.431,955.479c-0.889-2.636,3.272-3.972,4.083-1.311
			C1906.404,956.804,1902.243,958.14,1901.431,955.479z"/>
		<path style="fill:#C16256;" d="M1884.114,949.626c-0.889-2.636,3.272-3.972,4.083-1.311
			C1889.086,950.951,1884.925,952.287,1884.114,949.626z"/>
		<path style="fill:#E57D61;" d="M1953.416,972.684c-4.502,13.623-11.758,28.629-24.291,36.104l-0.018-0.003
			c-1.038,0.615-2.114,1.168-3.215,1.651c9.749-6.993,17.497-24.105,17.497-24.105l0.459-15.474
			c-11.358-15.931-3.031-30.457-3.031-30.457c-23.717,2.719-29.112-12.514-29.112-12.514c-7.323-0.228-14.295-5.284-14.295-5.284
			C1930.038,889.897,1967.559,936.842,1953.416,972.684z"/>
		<path style="fill:#C16256;" d="M1889.272,969.235c1.395,0.433,2.585-1.517,0.773-1.68c-2.852,0.538-9.086-2.4-5.644-3.812
			c4.932-1.683,12.626-12.972,8.127-10.951c-0.043,0.079-4.318,7.897-8.663,9.421
			C1877.91,965.165,1885.151,969.243,1889.272,969.235z"/>
		<path style="fill:#7640CC;" d="M2002.158,1266.591c-3.197,3.886-6.605,7.781-10.215,11.694c0,0-17.906,2.507-31.677-15.811
			c2.024-4.915,4.26-8.108,5.982-12.991C1966.249,1249.484,1976.886,1261.392,2002.158,1266.591z"/>
		<path style="fill:#163356;" d="M1993.208,1280.641c3.792,1.138,7.78-3.351,2.63-4.652c-27.866,1.216-35.292-17.18-35.594-17.964
			C1948.162,1251.224,1963.006,1282.313,1993.208,1280.641z"/>
		<path style="fill:#F4D4BE;" d="M1816.736,1277.388c0,0,5.466,23.45,49.211,35.016c12.529,3.313,19.77,1.675,21.607-7.012
			c0.923-4.363,3.304-11.953,7.683-14.768c0,0,9.788,4.227,13.481,10.224c8.097,13.147,20.297,1.202,26.236-12.558
			c7.346-17.021,30.903-34.405,34.973-48.681L1816.736,1277.388z"/>
		<path style="fill:#9358E0;" d="M1994.995,1248.401c-1.425,2.519-2.275,2.12-3.732,0.659
			c-39.296-29.349-53.366,34.778-95.711,35.927c-43.103,4.266-67.08,6.7-78.82-7.603c-20.497-31.769,12.104-173.784,38.473-208.174
			c11.551-17.88,32.044-33.815,43.075-43.094c-0.226,0.931-6.098,25.354,31.721,1.167c1.902,0.802,13.891,12.499,13.136,18.76
			C1945.058,1074.796,2013.276,1216.102,1994.995,1248.401z"/>
		<path style="fill:#8C4225;" d="M1885.862,899.498c0,0,11.089-3.053,22.453,1.41c1.302-4.311,3.958-8.288,8.272-11.437
			c1.853,5.239,4.487,10.268,7.487,14.956c1.027-9.85,7.099-17.837,7.099-17.837c1.623,9.436,14.665,16.224,20.815,26.437
			c0,0,34.783,11.927,9.954,42.464l-0.001-0.002c-1.023,11.301-6.538,22.733-6.538,22.733
			c-18.256-16.675-14.323-36.714-6.027-41.925c-14.879,5.276-28.132-0.977-35.616-10.852
			C1902.695,923.607,1889.166,917.583,1885.862,899.498z"/>
		<path style="fill:#7640CC;" d="M1972.249,1257.432l-8.617-1.791c34.448-77.547-6.065-110.33-27.495-154.02
			C1985.829,1159.124,1993.35,1190.65,1972.249,1257.432z"/>
		<path style="fill:#F99370;" d="M1961.166,981.178c-5.702,15.311-24.942,7.9-18.896-7.28
			C1947.971,958.587,1967.212,965.999,1961.166,981.178z"/>
		<path style="fill:#C16256;" d="M1955.722,983.663c3.517-3.681,3.514-9.865,1.911-11.584c-2.922-3-8.462-2.645-8.471-0.904
			c0.745,1.756,4.504-1.118,7.195,1.907C1959.26,975.365,1953.457,982.731,1955.722,983.663z"/>
		<path style="fill:#C16256;" d="M1948.423,981.34c1.24-0.087,3.253-5.71,9.384-5.343c0.443,0.05,0.841-0.287,0.884-0.732
			C1954.695,971.219,1944.805,981.419,1948.423,981.34z"/>
		<path style="fill:#F4D4BE;" d="M1941.631,1029.36c0.204,14.428-36.807,27.164-38.905,27.183l-4.437-13.128
			c-5.695,1.406-10.711,9.38-10.711,9.38c-16.417-15.641-0.979-29.277,10.711-26.696c0,0,0,0.009-0.009,0.019
			c-0.228,0.932-2.808,22.339,31.579,0.424C1934.287,1024.492,1941.631,1029.36,1941.631,1029.36z"/>
		<path style="fill:#163356;" d="M1880.771,1702.074c0.03-0.054-4.851,1.798-11.593,3.087c0,0,18.869-281.197,21.68-318.724
			c2.811-37.526,14.634-43.838,14.634-43.838S1880.458,1696.002,1880.771,1702.074z"/>
		<path style="fill:#163356;" d="M1881.515,1688.442c-0.505,8.112-0.781,12.962-0.744,13.633
			c-13.357,4.469-40.217,9.861-55.247-0.965c0,0-0.383-4.455-1.164-12.668C1824.359,1688.442,1850.593,1700.549,1881.515,1688.442z"
			/>
		<path style="fill:#163356;" d="M2010.153,1702.754c0,0-37.554,9.122-56.901-0.68c0,0-0.799-4.887-2.196-13.633
			c0,0,26.461,7.035,59.56-0.378C2010.763,1696.589,2010.033,1702.047,2010.153,1702.754z"/>
		<path style="fill:#7640CC;" d="M1713.512,1078.119c-0.05,11.529-15.737,20.814-15.737,20.814
			c-1.755-2.656-3.509-5.463-5.162-8.321l11.126-18.042C1707.097,1074.425,1710.354,1076.567,1713.512,1078.119z"/>
		<path style="fill:#F99370;" d="M1687.399,1040.128c-4.307,2.77,2.757,11.295,2.22,15.935c-7.141-3.255-13.396-8.6-13.448-8.591
			c-6.123-7.55-11.826-15.417-17.175-23.545c-13.192-6.042,7.732,23.831,9.309,27.508c-0.036,0.033-0.069,0.068-0.105,0.102
			c-7.921-6.396-15.506-13.238-22.465-20.672c-14.843-3.098,15.077,24.205,17.799,27.454c-0.01,0.022-0.02,0.044-0.03,0.066
			c-8.468-4.755-16.36-10.548-23.535-17.104c-15.221-1.791,17.289,23.603,20.904,25.879c-0.007,0.038-0.014,0.076-0.021,0.113
			c-6.444-0.856-19.7-12.769-23.955-9.888c-4.034,6.534,39.498,29.978,54.753,32.923c5.488,1.51,13.41-12.296,12.068-17.722
			c-1.259-5.088-4.77-11.313-5.975-13.598C1695.841,1053.679,1693.716,1040.548,1687.399,1040.128z"/>
		<path style="fill:#395B96;" d="M1729.148,1132.864c0.452,0.35,0.903,0.701,1.353,1.102c-0.45-0.351-0.852-0.652-1.302-0.953
			v-0.049C1729.148,1132.913,1729.148,1132.864,1729.148,1132.864z"/>
		<path style="fill:#C16256;" d="M1913.829,952.038c0.122-0.037,0.24-0.099,0.345-0.184c0.444-0.357,0.516-1.006,0.159-1.451
			c-0.182-0.227-4.543-5.563-11.855-5.286c-0.571,0.02-1.016,0.501-0.994,1.072c0.022,0.571,0.502,1.016,1.072,0.994
			c6.248-0.237,10.126,4.466,10.165,4.514C1912.995,952.036,1913.438,952.157,1913.829,952.038z"/>
		<path style="fill:#C16256;" d="M1885.747,942.609c0.182,0.016,0.37-0.017,0.546-0.104c3.286-1.627,6.951,0.611,6.989,0.633
			c0.481,0.301,1.121,0.156,1.423-0.328c0.303-0.483,0.158-1.119-0.324-1.423c-0.188-0.118-4.667-2.885-9.006-0.735
			c-0.511,0.254-0.721,0.874-0.467,1.385C1885.074,942.373,1885.399,942.579,1885.747,942.609z"/>
		<path style="fill:#C16256;" d="M1895.532,973.173c-0.18,0.034-0.352,0.116-0.499,0.247c-2.729,2.448-6.86,1.276-6.902,1.265
			c-0.544-0.161-1.122,0.15-1.283,0.698c-0.162,0.547,0.148,1.121,0.694,1.284c0.213,0.063,5.27,1.527,8.874-1.708
			c0.424-0.382,0.46-1.035,0.078-1.46C1896.243,973.219,1895.875,973.108,1895.532,973.173z"/>
	</g>
	<g id="_x31__1_">
		<path style="fill:#662948;" d="M635.867,1057.118c13.169-85.104,62.289-65.055,62.289-65.055
			c0.002,0.002,27.016-14.039,49.355,20.137c35.417,54.184,76.837,40.644,86.545,89.463c9.511,47.831-55.568,102.189-133.081,66.847
			C700.975,1168.51,622.609,1142.798,635.867,1057.118z"/>
		<path style="fill:#F99370;" d="M892.239,1196.943c3.345,2.85-4.617,9.589-5.028,13.577c6.903-1.482,13.432-4.972,13.476-4.953
			c6.838-5.453,13.368-11.267,19.638-17.377c12.91-3.186-11.508,19.7-13.492,22.38c0.025,0.036,0.048,0.073,0.072,0.11
			c8.196-4.092,16.181-8.64,23.732-13.831c13.973-0.337-18.147,18.638-20.941,20.693c0.005,0.021,0.009,0.043,0.013,0.064
			c8.359-2.544,16.413-6.112,23.982-10.488c14.109,0.912-20.014,17.656-23.365,18.709c-0.001,0.035-0.003,0.069-0.004,0.104
			c6.856-1.042,13.578-2.958,20.148-5.202c13.021,2.736-18.557,13.023-21.732,13.656c-1.971,1.533-14.322,5.027-29.926,5.844
			c-5.113,0.268-9.408-13.398-7.18-17.908c2.089-4.229,6.376-9.023,7.876-10.798
			C881.867,1207.587,887.115,1195.629,892.239,1196.943z"/>
		<path style="fill:#F99370;" d="M692.275,1156.45c12.737,9.396,19.506,23.697,29.388,36.888
			c11.604,16.374,24.865,33.841,41.884,45.414c36.149,23.439,81.246,14.159,119.278,1.709c13.798-4.258,7.57-25.928-6.376-22.161
			c-32.536,7.361-76.138,14.002-99.175-15.592c-22.22-25.677-29.091-61.742-54.051-85.762
			C696.079,1092.029,661.516,1135.978,692.275,1156.45z"/>
		<path style="fill:#CE4ABF;" d="M708.585,1201.748c4.104,11.403,9.636,20.336,15.766,27.263
			c11.631,13.151,25.443,19.106,35.823,21.111c0.351,0.072,0.693,0.134,1.034,0.197c15.818,2.74,49.625-36.247,31.316-49.625
			c-18.299-13.368-15.125-21.463-36.95-53.647c-21.825-32.174-40.228-37.984-40.228-37.984
			C715.605,1133.927,696.448,1167.962,708.585,1201.748z"/>
		<path style="fill:#F99370;" d="M415.727,1621.644l-11.926-73.442c3.692-1.89,22.04-1.153,28.461-2.922
			c4.106-0.394,55.699-14.757,61.072-16.076l6.847,42.165l-55.367,2.002c-6.567,0.237-12.026,5.104-13.047,11.594
			c-2.964,14.384,2.057,29.437-7.185,39.842C421.414,1627.601,416.404,1625.812,415.727,1621.644z"/>
		<path style="fill:#1D3F70;" d="M410.502,1544.827c-2.432,0.702-4.73,1.778-6.702,3.374l12.024,74.047
			c0.585,3.601,4.553,5.631,7.757,3.886c7.484-4.1,17.423-15.731,13.666-50.152c0,0-5.343-11.051-4.986-30.703
			C432.261,1545.279,420.359,1541.967,410.502,1544.827z"/>
		<path style="fill:#E8C0A6;" d="M435.22,1612.252c-2.689-0.751-2.429-4.922-11.403-7.118c-0.818-0.187-1.332-1.001-1.144-1.819
			C425.989,1598.645,441.739,1611.956,435.22,1612.252z"/>
		<path style="fill:#E8C0A6;" d="M437.55,1601.256c-0.463,0-0.919-0.211-1.218-0.609l0,0c-0.047-0.063-4.777-6.242-12.874-7.376
			c-1.955-0.241-1.526-3.317,0.422-3.01c9.389,1.314,14.667,8.271,14.888,8.567C439.527,1599.785,438.755,1601.293,437.55,1601.256z
			"/>
		<path style="fill:#E8C0A6;" d="M437.997,1587.53c-2.104-0.375-5.095-5.923-15.113-7.798c-1.94-0.308-1.418-3.369,0.526-2.993
			C433.453,1578.899,443.053,1585.873,437.997,1587.53z"/>
		<path style="fill:#395B96;" d="M423.695,1626.071l-13.193-81.245c-2.432,0.702-4.73,1.778-6.702,3.374l12.024,74.047
			C416.412,1625.9,420.493,1627.922,423.695,1626.071z"/>
		<path style="fill:#A523A2;" d="M724.352,1229.011c11.631,13.151,25.443,19.106,35.823,21.111
			c-6.534-13.337,2.523-19.147,4.197-40.982c1.758-22.879-18.247-46.7-18.247-46.7L724.352,1229.011z"/>
		<path style="fill:#F99370;" d="M743.603,1746.518l-74.313-0.816c-1.227-3.973,2.63-21.896,1.989-28.533
			c-0.017-2.792-0.733-18.077-0.99-20.864l5.563-41.929l32.759,0.359l-7.498,54.876c-0.889,6.509,2.974,12.718,9.195,14.834
			c13.653,5.361,29.242,3.029,37.98,13.799C750.557,1741.863,747.874,1746.565,743.603,1746.518z"/>
		<path style="fill:#1D3F70;" d="M667.11,1738.525c0.276,2.516,0.943,4.963,2.179,7.178l75.036,0.823
			c3.648,0.04,6.329-3.521,5.156-6.975c-2.761-8.072-12.524-19.852-47.091-22.04c0,0-11.806,3.372-31.113-0.341
			C671.278,1717.171,665.977,1728.327,667.11,1738.525z"/>
		<path style="fill:#E8C0A6;" d="M727.422,1736.661c-1.055,0.019-1.835-1.134-1.401-2.107c3.351-8.011,9.471-10.422,9.73-10.519
			c1.829-0.727,2.936,2.157,1.089,2.838c-0.231,0.092-5.196,2.118-8.015,8.855C728.581,1736.31,728.017,1736.661,727.422,1736.661z"
			/>
		<path style="fill:#E8C0A6;" d="M715.624,1735.105c-1.007,0.014-1.776-1.026-1.447-1.985c2.78-10.088,15.981-17.532,12.366-10.486
			c-0.088,0.044-6.973,3.645-9.473,11.417C716.864,1734.696,716.267,1735.105,715.624,1735.105z"/>
		<path style="fill:#E8C0A6;" d="M702.2,1733.306c-1.026,0.016-1.801-1.068-1.429-2.035c3.288-9.123,10.501-13.862,10.807-14.06
			c1.637-1.088,3.324,1.503,1.651,2.554c-0.098,0.064-6.677,4.431-9.599,12.536C703.407,1732.92,702.822,1733.306,702.2,1733.306z"
			/>
		<path style="fill:#395B96;" d="M749.439,1739.429l-82.33-0.903c0.276,2.516,0.943,4.963,2.179,7.178l75.036,0.823
			C748.025,1746.573,750.716,1742.9,749.439,1739.429z"/>
		<path style="fill:#3A72AA;" d="M444.424,1538.415c0,0,0,20.932,5.701,40.886c142.654-11.89,201.871-30.455,213.013-168.886
			c0,0,48.743,93.223,2.196,270.492h-0.013c-1.344,5.198-2.747,10.313-4.246,15.524c0,0,18.307,14.969,43.611,10.063
			c31.546-59.957,101.157-204.26,41.048-393.056c-35.825-41.445-107.93-45.661-153.718-24.86
			C555.165,1383.339,619.862,1499.921,444.424,1538.415z"/>
		<path style="fill:#23659B;" d="M444.424,1538.415c0,0,0,20.932,5.701,40.886c0,0,6.428-0.45,16.825-1.521
			c-6.534-16.013-6.347-43.314-6.347-43.314C455.51,1535.934,449.979,1537.067,444.424,1538.415z"/>
		<path style="fill:#23659B;" d="M661.074,1696.431c0,0,18.307,14.969,43.611,10.063c0,0,2.351-4.591,6.821-13.212
			c0,0-29.916,2.819-46.173-12.374h-0.013C663.997,1686.012,662.582,1691.182,661.074,1696.431z"/>
		<path style="fill:#23659B;" d="M665.32,1680.907c-0.463,1.798-0.939,3.597-1.429,5.408h9.061
			c31.695-94.946,37.231-251.315-9.815-275.9c0,0,48.743,93.223,2.196,270.492H665.32z"/>
		<path style="fill:#23659B;" d="M696.738,1701.901c24.954-56.89,41.603-112.442,49.482-165.112
			c6.315-42.215,7.044-82.692,2.167-120.305c-8.338-64.3-29.912-97.549-30.826-98.932l-6.039,3.989l3.02-1.994l-3.021,1.992
			c0.216,0.328,21.705,33.576,29.756,96.397c7.44,58.045,4.602,153.924-51.166,281.061L696.738,1701.901z"/>
		<path style="fill:#23659B;" d="M456.033,1574.177c50.932-4.902,88.965-13.672,116.272-26.812
			c27.131-13.054,45.535-31.307,56.266-55.8c26.877-61.35,16.996-184.439,16.562-189.648l-7.212,0.601
			c0.104,1.257,10.161,126.474-15.978,186.143c-20.233,46.181-68.501,68.87-166.603,78.314L456.033,1574.177z"/>
		<path style="fill:#CE4ABF;" d="M589.56,1295.363c31.864,15.12,106.078,46.828,157.37,21.89c2.845-5.984,3.29-15.245,1.133-21.881
			c-19.912-68.275,33.32-77.181-2.887-134.466c-8.104-12.736-23.42-39.956-29.826-51.844c-5.993,14.359-23.575,0.772-30.675-7.454
			c-5.221,0.243-61.976,5.01-84.735,126.301C597.647,1240.213,566.236,1276.376,589.56,1295.363z"/>
		<path style="fill:#F99370;" d="M697.377,1272.821c0.743,4.331-9.688,4.407-12.558,7.206c6.25,3.284,13.499,4.786,13.521,4.828
			c8.744,0.192,17.483-0.089,26.212-0.766c11.954,5.823-21.456,7.757-24.695,8.544c-0.004,0.044-0.01,0.087-0.015,0.131
			c8.914,2.108,17.961,3.73,27.083,4.58c10.946,8.692-25.873,2.689-29.336,2.477c-0.01,0.019-0.021,0.038-0.031,0.058
			c8.049,3.401,16.518,5.819,25.135,7.307c10.251,9.738-26.678,0.739-29.927-0.599c-0.023,0.026-0.046,0.051-0.07,0.077
			c5.932,3.592,12.322,6.426,18.804,8.911c8.246,10.441-22.592-1.886-25.436-3.433c-2.495-0.085-14.218-5.313-26.724-14.681
			c-4.098-3.07,1.357-16.314,5.957-18.351c4.313-1.909,10.676-2.845,12.965-3.247
			C682.595,1274.352,694.284,1268.53,697.377,1272.821z"/>
		<path style="fill:#F99370;" d="M642.839,1109.956c-30.489,22.872-61.862,58.155-73.027,94.72
			c-17.671,50.488,45.719,80.125,86.495,92.054c7.974,3.034,17.269,4.672,20.57-5.449c2.34-9.256-5.347-12.943-12.535-15.652
			c-13.408-6.211-27.09-14.069-38.183-23.438c-12.953-10.648-23.369-25.25-13.269-40.628c12.07-24.722,32.777-45.91,56.213-59.502
			C696.566,1134.756,670.437,1092.907,642.839,1109.956z"/>
		<path style="fill:#CE4ABF;" d="M684.364,1101.617c0,0-45.55-8.355-78.986,33c-33.435,41.355-60.779,93.845-38.606,107.571
			c12.703,7.864,14.07-12.88,45.4-6.744c24.442,4.787,19.681-40.685,56.439-78.742
			C688.837,1135.76,689.549,1109.062,684.364,1101.617z"/>
		<path style="fill:#A523A2;" d="M614.852,1237.824c3.924,0,17.183-2.043,26.009-28.196c9.593-28.426,26.328-48.357,26.496-48.554
			c0.739-0.871,0.632-2.176-0.24-2.915c-0.871-0.738-2.175-0.631-2.915,0.24c-0.706,0.833-17.416,20.738-27.259,49.907
			c-9.034,26.765-22.473,25.381-22.604,25.36c-1.14-0.14-2.166,0.643-2.322,1.763c-0.157,1.121,0.604,2.158,1.725,2.329
			C613.836,1237.772,614.225,1237.824,614.852,1237.824z"/>
		<path style="fill:#FFD2D2;" d="M715.297,1107.807c0,0,8.756,3.179,12.55,8.615c0,0-1.099,7.731-6.779,10.539
			c-6.408,3.168-12.929-8.579-12.929-8.579s-1.398,10.249-9.317,9.545c-7.919-0.704-22.968-12.322-27.719-26.936
			c0,0,9.626-1.667,13.262,0.625L715.297,1107.807z"/>
		<path style="fill:#F99370;" d="M716.507,1099.089l-1.21,8.718c-3.145,13.743-26.906,0.49-30.621-6.199c0,0,1.117-5.02,1.505-9.516
			L716.507,1099.089z"/>
		<path style="fill:#E57D61;" d="M686.959,1060.105c0.012,0.543,0.042,1.095,0.104,1.632c0.77-0.388,0.46,19.208-1.198,33.26
			c12.491,7.578,27.529,6.692,30.29,6.461c2.411-17.763,2.71-34.171,1.31-44.665
			C714.166,1038.926,686.351,1041.976,686.959,1060.105z"/>
		<path style="fill:#F99370;" d="M666.748,1049.369c2.432,13.82,7.335,29.365,18.41,38.368l0.018,0
			c4.474,3.608,9.895,5.867,15.621,6.908c32.151,8.793,69.972-29.873,44.178-56.552c-9.303-8.348-11.467-23.345-18.906-31.675
			c-10.866-15.287-34.208-14.148-46.638-1.374C668.198,1016.593,664.526,1032.34,666.748,1049.369z"/>
		<path style="fill:#C16256;" d="M719.504,1040.063c1.233-2.426-2.606-4.306-3.767-1.845
			C714.503,1040.644,718.342,1042.524,719.504,1040.063z"/>
		<path style="fill:#C16256;" d="M737.094,1036.845c1.233-2.426-2.606-4.306-3.767-1.845
			C732.093,1037.426,735.933,1039.306,737.094,1036.845z"/>
		<path style="fill:#C16256;" d="M731.902,1055.086c-1.291,0.028-4.126,0.556-4.076-1.198c0.128-0.42,0.575-0.656,0.991-0.528
			c2.674,0.813,6.423-0.575,6.92-1.786c0.175-0.427-0.402-0.838-0.917-1.107c-4.481-2.171-10.424-14.6-6.317-11.746
			c0.031,0.083,3.063,8.253,7.052,10.34C740.062,1052.078,735.444,1054.528,731.902,1055.086z"/>
		<path style="fill:#E57D61;" d="M666.748,1049.369c2.432,13.82,7.335,29.365,18.41,38.368l0.018,0
			c-6.174-7.44-10.199-24.228-10.199-24.228l2.759-7.533c47.886-16.217,43.211-54.932,43.211-54.932
			C691.468,977.681,659.968,1017.737,666.748,1049.369z"/>
		<path style="fill:#662948;" d="M716.228,997.448c0,0,3.97,38.415-38.859,54.671l-15.575-8.303
			C646.297,1014.465,673.42,970.298,716.228,997.448z"/>
		<path style="fill:#662948;" d="M665.361,986.825c10.503,36.127,52.586,24.578,43.171-11.848
			C698.029,938.851,655.947,950.4,665.361,986.825z"/>
		<path style="fill:#F99370;" d="M658.049,1056.495c3.354,15.621,23.026,11.168,19.32-4.376
			C674.015,1036.498,654.343,1040.952,658.049,1056.495z"/>
		<path style="fill:#C16256;" d="M663.186,1059.669c-3.308-3.374-2.121-10.271-0.431-11.478c3.103-2.534,8.722-1.267,8.328,0.322
			c-0.977,1.588-4.203-1.717-7.235,0.829C660.74,1051.705,665.039,1058.325,663.186,1059.669z"/>
		<path style="fill:#C16256;" d="M670.58,1058.453c-1.624-0.065-2.303-5.955-8.547-6.495c-0.438-0.023-0.775-0.396-0.751-0.834
			C665.611,1047.768,673.549,1058.74,670.58,1058.453z"/>
		<path style="fill:#F4D4BE;" d="M666.829,1062.597c0,2.311,3.631,2.259,3.563-0.052
			C670.393,1060.234,666.761,1060.287,666.829,1062.597z"/>
		<path style="fill:#C16256;" d="M725.369,1065.082c-0.987-0.267-1.891-0.908-2.545-1.804c-1.387-1.902-1.219-4.397,0.375-5.561
			c0.8-0.583,1.821-0.746,2.865-0.464c0.987,0.267,1.891,0.908,2.545,1.804c1.387,1.902,1.219,4.397-0.375,5.561
			c-0.544,0.396-1.188,0.599-1.875,0.599C726.036,1065.218,725.704,1065.173,725.369,1065.082z M724.113,1058.97
			c-0.904,0.66-0.92,2.183-0.035,3.394c0.446,0.613,1.049,1.046,1.696,1.221c0.59,0.158,1.136,0.079,1.547-0.219
			c0.904-0.66,0.92-2.183,0.036-3.394l0,0c-0.446-0.613-1.049-1.046-1.696-1.221c-0.199-0.054-0.393-0.08-0.578-0.08
			C724.718,1058.671,724.386,1058.772,724.113,1058.97z M727.973,1059.515h0.009H727.973z"/>
		<path style="fill:#C16256;" d="M710.766,1035.679c0.243,0,0.482-0.114,0.633-0.326c2.824-3.986,8.289-4.029,8.344-4.029h0.001
			c0.427,0,0.775-0.346,0.776-0.773c0.001-0.428-0.344-0.776-0.772-0.777c-0.002,0-0.005,0-0.008,0
			c-0.359,0-6.339,0.072-9.605,4.682c-0.248,0.35-0.165,0.834,0.184,1.081C710.454,1035.633,710.611,1035.679,710.766,1035.679z"/>
		<path style="fill:#C16256;" d="M727.397,1030.202c0.111,0,0.225-0.023,0.332-0.075c4.845-2.303,8.594-0.063,8.633-0.039
			c0.365,0.223,0.842,0.107,1.066-0.256c0.224-0.365,0.109-0.842-0.257-1.066c-0.181-0.111-4.512-2.697-10.108-0.039
			c-0.386,0.184-0.551,0.646-0.367,1.033C726.828,1030.038,727.107,1030.202,727.397,1030.202z"/>
	</g>
</g>
</svg>
